<?xml version="1.0" encoding="iso-8859-1"?>
<!-- Generator: Adobe Illustrator 16.0.0, SVG Export Plug-In . SVG Version: 6.00 Build 0)  -->
<!DOCTYPE svg PUBLIC "-//W3C//DTD SVG 1.0//EN" "http://www.w3.org/TR/2001/REC-SVG-20010904/DTD/svg10.dtd">
<svg version="1.0" id="Layer_1" xmlns="http://www.w3.org/2000/svg" xmlns:xlink="http://www.w3.org/1999/xlink" x="0px" y="0px"
	 width="96px" height="40px" viewBox="0 0 96 40" style="enable-background:new 0 0 96 40;" xml:space="preserve">
<g>
	<g>
		<path style="fill-rule:evenodd;clip-rule:evenodd;fill:#FFFFFF;" d="M66.219,8.831c-0.896-0.955-1.859-1.833-2.959-2.55
			c-2.254-1.469-4.723-2.27-7.416-2.375C48.871,3.636,42.848,8.38,41.119,14.953c-0.868,3.299-0.643,6.54,0.635,9.705
			c0.041,0.102,0.125,0.192,0.086,0.32c-0.123-0.019-0.163-0.125-0.224-0.204c-2.404-3.08-3.457-6.583-3.216-10.469
			c0.368-5.951,4.302-11.124,9.935-13.111c1.083-0.383,2.201-0.619,3.343-0.731c0.063-0.006,0.137,0.023,0.178-0.057
			c0.813,0,1.627,0,2.441,0c0.318,0.125,0.658,0.107,0.988,0.16c2.799,0.441,5.258,1.603,7.387,3.466
			c1.525,1.336,2.734,2.918,3.602,4.757C66.254,8.804,66.236,8.818,66.219,8.831z"/>
		<path style="fill-rule:evenodd;clip-rule:evenodd;fill:#FFFFFF;" d="M60.938,16.375c-0.338,0.851-0.678,1.701-1.014,2.551
			c-1.748,4.411-3.494,8.819-5.236,13.232c-0.09,0.225-0.213,0.353-0.473,0.377c-0.461,0.046-0.924,0.041-1.389,0.046
			c-0.252,0.005-0.332-0.174-0.404-0.366c-0.436-1.19-0.869-2.379-1.307-3.569c-1.49-4.071-2.983-8.144-4.476-12.216
			c-0.03-0.083-0.065-0.167-0.144-0.247c-0.069,0.552-0.141,1.103-0.207,1.655c-0.226,1.85-0.447,3.7-0.671,5.549
			c-0.194,1.615-0.389,3.231-0.582,4.848c-0.157,1.304-0.314,2.61-0.465,3.914c-0.027,0.241-0.146,0.346-0.382,0.366
			c-0.529,0.048-1.058,0.075-1.588,0.066c-0.301-0.002-0.351-0.051-0.299-0.356c0.233-1.353,0.473-2.699,0.711-4.05
			c0.466-2.635,0.934-5.269,1.402-7.903c0.384-2.168,0.768-4.337,1.16-6.505c0.035-0.195,0.024-0.371-0.042-0.554
			c-0.152-0.417-0.302-0.835-0.442-1.256c-0.112-0.333-0.03-0.489,0.313-0.551c0.774-0.138,1.556-0.205,2.339-0.25
			c0.35-0.021,0.482,0.21,0.582,0.479c0.363,0.984,0.723,1.97,1.084,2.954c1.654,4.505,3.307,9.012,4.961,13.519
			c0.109-0.009,0.104-0.105,0.131-0.164c2.025-4.797,4.051-9.595,6.08-14.39c0.105-0.25,0.018-0.484,0.002-0.723
			c-0.021-0.319-0.08-0.638-0.117-0.957c-0.031-0.257,0.074-0.424,0.338-0.469c0.773-0.134,1.555-0.222,2.338-0.245
			c0.34-0.009,0.479,0.128,0.52,0.474c0.121,1.024,0.234,2.048,0.352,3.072c0.182,1.589,0.365,3.177,0.547,4.765
			c0.197,1.72,0.395,3.44,0.59,5.16c0.199,1.739,0.396,3.478,0.598,5.216c0.082,0.687,0.166,1.37,0.242,2.056
			c0.031,0.275-0.088,0.446-0.359,0.488c-0.832,0.133-1.67,0.209-2.516,0.194c-0.223-0.005-0.32-0.123-0.344-0.333
			c-0.135-1.221-0.27-2.444-0.408-3.666c-0.18-1.598-0.363-3.196-0.543-4.794c-0.158-1.392-0.314-2.782-0.469-4.173
			c-0.121-1.079-0.24-2.159-0.359-3.238C60.973,16.379,60.955,16.376,60.938,16.375z"/>
		<path style="fill-rule:evenodd;clip-rule:evenodd;fill:#FFFFFF;" d="M47.946,35.302c3.898,0,7.73,0,11.626,0
			c-0.24,0.328-0.453,0.62-0.668,0.913c-0.055,0.075-0.137,0.054-0.209,0.054c-3.293,0-6.586,0-9.878,0
			c-0.084,0-0.163,0.009-0.225-0.079C48.393,35.904,48.185,35.627,47.946,35.302z"/>
		<path style="fill-rule:evenodd;clip-rule:evenodd;fill:#FFFFFF;" d="M49.281,37.126c3.002,0,5.955,0,8.955,0
			c-0.258,0.358-0.498,0.686-0.732,1.011c-0.063,0.086-0.15,0.063-0.232,0.063c-2.346,0-4.691,0-7.037,0.003
			c-0.096,0-0.18-0.003-0.246-0.098C49.768,37.787,49.535,37.479,49.281,37.126z"/>
		<path style="fill-rule:evenodd;clip-rule:evenodd;fill:#FFFFFF;" d="M56.848,39.036c-0.227,0.313-0.436,0.59-0.637,0.872
			C56.146,40.002,56.057,40,55.961,40c-1.465,0-2.932,0-4.396,0c-0.107,0-0.203-0.006-0.275-0.107
			c-0.193-0.277-0.395-0.549-0.617-0.856C52.738,39.036,54.762,39.036,56.848,39.036z"/>
	</g>
	<g>
		<path style="fill-rule:evenodd;clip-rule:evenodd;fill:#FFFFFF;" d="M78.459,11.374c1.709-0.015,3.453,0.27,5.188,0.624
			c0.252,0.051,0.42,0.184,0.436,0.448c0.074,1.332,0.141,2.664,0.217,3.995c0.012,0.201-0.029,0.298-0.254,0.283
			c-0.205-0.013-0.445,0.132-0.607,0.024c-0.17-0.112-0.102-0.383-0.154-0.581c-0.371-1.415-1.332-2.275-2.633-2.803
			c-1.355-0.55-2.771-0.631-4.213-0.482c-1.346,0.141-2.576,0.583-3.658,1.41c-1.32,1.014-2.137,2.366-2.523,3.968
			c-0.689,2.854-0.5,5.646,0.846,8.282c1.25,2.45,3.338,3.831,6.018,4.322c2.471,0.454,4.857,0.05,7.18-0.824
			c0.27-0.102,0.387-0.063,0.467,0.206c0.063,0.198,0.152,0.389,0.254,0.568c0.102,0.179,0.047,0.257-0.119,0.345
			c-0.984,0.497-2.025,0.838-3.094,1.098c-1.705,0.416-3.436,0.709-5.195,0.595c-4.107-0.267-7.322-2.02-9.264-5.762
			c-0.939-1.813-1.232-3.773-1.131-5.807c0.098-1.978,0.656-3.792,1.809-5.409c1.293-1.814,3.063-2.98,5.146-3.697
			C74.861,11.595,76.607,11.362,78.459,11.374z"/>
		<path style="fill-rule:evenodd;clip-rule:evenodd;fill:#FFFFFF;" d="M25.676,22.822c0-3.04-0.005-6.08,0.007-9.12
			c0.001-0.296-0.083-0.359-0.363-0.351c-1.343,0.034-2.688-0.035-4.032,0.06c-1.056,0.076-1.795,0.583-2.219,1.55
			c-0.251,0.572-0.435,1.168-0.579,1.777c-0.04,0.169-0.087,0.244-0.296,0.224c-0.747-0.075-0.763-0.064-0.712-0.824
			c0.084-1.284,0.135-2.57,0.277-3.849c0.04-0.37,0.129-0.458,0.474-0.448c3.029,0.094,6.059,0.069,9.088,0.067
			c2.813-0.002,5.625-0.018,8.437-0.03c0.313-0.001,0.625-0.014,0.936-0.028c0.424-0.018,0.511,0.045,0.542,0.489
			c0.051,0.736,0.095,1.472,0.127,2.209c0.03,0.701,0.039,1.4,0.065,2.1c0.006,0.168-0.03,0.243-0.219,0.269
			c-0.713,0.097-0.713,0.107-0.901-0.569c-0.158-0.564-0.327-1.126-0.591-1.652c-0.402-0.799-1.065-1.204-1.943-1.276
			c-1.447-0.12-2.896-0.039-4.344-0.065c-0.165-0.003-0.224,0.054-0.206,0.211c0.008,0.075,0.001,0.151,0.001,0.227
			c0,5.957,0,11.916,0,17.872c0,0.569-0.092,0.666-0.653,0.747c-0.778,0.108-1.559,0.18-2.346,0.174
			c-0.447-0.005-0.549-0.103-0.55-0.557c-0.001-1.801,0-3.598,0-5.399C25.676,25.36,25.676,24.092,25.676,22.822z"/>
		<path style="fill-rule:evenodd;clip-rule:evenodd;fill:#FFFFFF;" d="M14.992,25.328c0,1.98,0,3.96,0,5.94
			c0,0.481-0.083,0.591-0.574,0.662c-0.749,0.106-1.502,0.188-2.26,0.188c-0.43,0-0.541-0.109-0.541-0.534
			c-0.001-3.145-0.001-6.287,0-9.431c0-0.294-0.013-0.587-0.085-0.873c-0.124-0.485-0.412-0.734-0.903-0.816
			c-0.342-0.056-0.681-0.023-1.018,0.013c-0.151,0.016-0.217-0.014-0.25-0.171C9.224,19.651,9.22,19.656,9.876,19.5
			c1.417-0.336,2.837-0.65,4.286-0.824c0.604-0.072,0.83,0.113,0.83,0.716C14.992,21.371,14.992,23.349,14.992,25.328z"/>
		<path style="fill-rule:evenodd;clip-rule:evenodd;fill:#FFFFFF;" d="M13.049,14.991c-1.496,0.002-2.346-1.48-1.602-2.79
			c0.178-0.312,0.452-0.509,0.782-0.625c0.555-0.197,1.127-0.25,1.704-0.125c0.733,0.156,1.158,0.748,1.186,1.624
			C15.159,14.358,14.479,14.989,13.049,14.991z"/>
	</g>
	<path style="fill-rule:evenodd;clip-rule:evenodd;fill:#FFFFFF;" d="M41.906,25.075c0.014,0.019,0.027,0.037,0.042,0.055
		c-0.007,0.005-0.015,0.01-0.023,0.013c-0.004-0.023-0.009-0.048-0.014-0.073L41.906,25.075z"/>
	<path style="fill-rule:evenodd;clip-rule:evenodd;fill:#FFFFFF;" d="M66.273,8.791c0.012,0.029,0.037,0.059-0.004,0.081
		c-0.008,0.004-0.033-0.026-0.051-0.04C66.236,8.818,66.254,8.804,66.273,8.791z"/>
	<path style="fill-rule:evenodd;clip-rule:evenodd;fill:#FFFFFF;" d="M41.911,25.069c-0.019-0.011-0.038-0.02-0.056-0.03
		c0.006-0.007,0.013-0.015,0.017-0.02c0.012,0.019,0.023,0.037,0.034,0.056L41.911,25.069z"/>
</g>
</svg>
